<?xml version="1.0" encoding="UTF-8" standalone="no"?>
<!-- Created with Inkscape (http://www.inkscape.org/) -->

<svg
   width="110mm"
   height="40.867626mm"
   viewBox="0 0 110 40.867626"
   version="1.1"
   id="svg5"
   inkscape:version="1.2.2 (732a01da63, 2022-12-09)"
   sodipodi:docname="schrift_dergeraet_unterschriften_2_nur_platte.svg"
   xmlns:inkscape="http://www.inkscape.org/namespaces/inkscape"
   xmlns:sodipodi="http://sodipodi.sourceforge.net/DTD/sodipodi-0.dtd"
   xmlns="http://www.w3.org/2000/svg"
   xmlns:svg="http://www.w3.org/2000/svg">
  <sodipodi:namedview
     id="namedview7"
     pagecolor="#ffffff"
     bordercolor="#666666"
     borderopacity="1.0"
     inkscape:showpageshadow="2"
     inkscape:pageopacity="0.0"
     inkscape:pagecheckerboard="0"
     inkscape:deskcolor="#d1d1d1"
     inkscape:document-units="mm"
     showgrid="false"
     inkscape:zoom="1.4770342"
     inkscape:cx="189.23055"
     inkscape:cy="134.05241"
     inkscape:window-width="1920"
     inkscape:window-height="1129"
     inkscape:window-x="3832"
     inkscape:window-y="-8"
     inkscape:window-maximized="1"
     inkscape:current-layer="layer1" />
  <defs
     id="defs2">
    <rect
       x="78.535759"
       y="105.61705"
       width="494.23364"
       height="243.73166"
       id="rect236" />
    <clipPath
       clipPathUnits="userSpaceOnUse"
       id="clipEmfPath1">
      <path
         d="M 0.50018801,0.20005994 H 365.11499 V 18.705887 H 0.50018801 Z"
         id="path240" />
    </clipPath>
    <clipPath
       clipPathUnits="userSpaceOnUse"
       id="clipEmfPath2">
      <path
         d="M 0.50018801,18.10934 H 365.11499 V 36.615166 H 0.50018801 Z"
         id="path243" />
    </clipPath>
    <clipPath
       clipPathUnits="userSpaceOnUse"
       id="clipEmfPath3">
      <path
         d="M 0.50018801,36.018574 H 365.11499 V 54.024243 H 0.50018801 Z"
         id="path246" />
    </clipPath>
    <pattern
       id="EMFhbasepattern"
       patternUnits="userSpaceOnUse"
       width="6"
       height="6"
       x="0"
       y="0" />
  </defs>
  <g
     inkscape:label="Ebene 1"
     inkscape:groupmode="layer"
     id="layer1"
     transform="translate(-71.690588,-58.84302)">
    <g
       id="g2123"
       style="clip-rule:evenodd;fill-rule:evenodd;image-rendering:optimizeQuality;shape-rendering:geometricPrecision;text-rendering:geometricPrecision"
       transform="matrix(0.00160511,3.2604837e-4,-3.003857e-4,0.00154346,126.4825,61.547158)">
      <path
         class="fil0 str0"
         d="M 1042.51,463.44 C 273.32,2884.39 677.9,1939.83 498.86,3840.49 299.05,5960.98 -666.74,-2084.18 2734.57,886.83 c 839.41,733.22 819.18,3737.75 -2118.99,3248.13 -323.36,-53.87 464.31,940.11 2974.55,-970.58 54.78,-41.67 2749.39,-1116.52 968.91,-630.82 -2418.79,659.79 1170.89,3515.62 880,-101.07 -72.22,-897.86 -439.17,3812.38 1174.47,792.87 166.8,-312.12 -182.62,-2282 477.46,909.6 146.57,15.19 1617.3,-2832.73 376.39,-782.38 -675.9,1116.77 1869.81,1423.73 1869.81,-838.21 0,251.84 45.58,1316.25 26.14,1310.42 145.61,-844.62 2531.52,-1522.56 1402.75,-1087.34 -1858.57,716.61 1132.68,4070.72 1132.68,-2073.66 -107.31,22.19 -702.42,4215.09 981.07,3648.96 279.11,-93.87 43.83,-116.97 466.97,-57.15"
         id="path1977"
         style="fill:none;stroke:#000000;stroke-width:440.54;stroke-miterlimit:22.9256" />
      <line
         class="fil0 str0"
         x1="9395.4199"
         y1="619.87"
         x2="9395.4199"
         y2="220"
         id="line1979"
         style="fill:none;stroke:#000000;stroke-width:440.54;stroke-miterlimit:22.9256" />
      <path
         class="fil0 str0"
         d="m 15493.56,4168.38 c 1277.54,-402.29 211.72,-2790.44 0,-3479.33 582.61,65.56 3400.61,-57.49 3080.7,1539.5 -358.49,1789.39 -3196.22,-383.26 808.57,747.54 813.48,229.74 -1506.78,1469.98 -2887.47,1381.86"
         id="path1981"
         style="fill:none;stroke:#000000;stroke-width:440.54;stroke-miterlimit:22.9256" />
      <path
         class="fil0 str0"
         d="m 21740.51,2525.77 c -120.43,108.73 -2197.54,1675.99 -533.2,1867.02 1621.5,186.12 1692.56,-4568.75 1153.57,-1509.07 -725.56,4118.93 1869.02,-16.78 2856.08,-339.8 687.6,-225.04 -2556.2,239.48 254.38,1341.81 66.02,25.85 781.01,898.15 -111.48,954.89 -1403.42,89.29 714.74,1084.51 1697.22,-1503.82 2293.03,-6040.69 -905.18,-303.75 122.01,954.97 634.4,777.39 1976.42,-88.25 2185.18,-123.38"
         id="path1983"
         style="fill:none;stroke:#000000;stroke-width:440.54;stroke-miterlimit:22.9256" />
      <path
         class="fil0 str0"
         d="m 26147.29,2166.49 c 935.45,-93.37 2775.04,-388.67 3216.99,-187.41"
         id="path1985"
         style="fill:none;stroke:#000000;stroke-width:440.54;stroke-miterlimit:22.9256" />
      <line
         class="fil0 str0"
         x1="21379.061"
         y1="2830.52"
         x2="22622.801"
         y2="1858.78"
         id="line1987"
         style="fill:none;stroke:#000000;stroke-width:440.54;stroke-miterlimit:22.9256" />
    </g>
    <g
       id="g2338"
       style="clip-rule:evenodd;fill-rule:evenodd;image-rendering:optimizeQuality;shape-rendering:geometricPrecision;text-rendering:geometricPrecision"
       transform="matrix(0.03093752,-0.01279228,0.01323268,0.0320026,77.982562,77.080069)">
      <g
         id="g2879"
         transform="matrix(0.98885961,0.14389726,-0.15397569,0.98885961,15.171781,-213.72189)">
        <path
           class="fil0 str0"
           d="m 329.24,120.69 c 87.51,-55.64 100.73,-92.64 120.18,2.14 5.62,27.39 -115.39,173.98 -127.27,98.74 C 350.39,194.51 686.13,115.24 590.3,29.04 560.14,1.91 487.94,203.43 567.46,194.35 c 59.01,-6.74 42.87,-125.05 66.94,-11.66 18.07,85.09 143.29,-129.95 122.88,12.21 -11.93,83.13 8.38,-70.92 59.3,-41.02 29.95,17.58 178.07,-101.52 80.46,29.09 -23.19,31.03 -40.24,15.29 -50.09,-14.93"
           id="path2182"
           style="fill:none;stroke:#000000;stroke-width:23.57;stroke-miterlimit:22.9256" />
        <path
           class="fil0 str0"
           d="m 924.89,141.17 c 148.86,4.28 95.42,-21.01 77.42,33.69 -32.79,99.63 250.09,-114.48 183.02,-73.75 -14.63,8.89 -292.91,240.57 -102.28,106.1 111.83,-78.88 -62.83,62.43 130.53,14.64"
           id="path2184"
           style="fill:none;stroke:#000000;stroke-width:23.57;stroke-miterlimit:22.9256" />
        <path
           class="fil0 str0"
           d="M 657.75,86.55 C 713.54,-43.06 626.71,34.44 677.84,36.14"
           id="path2186"
           style="fill:none;stroke:#000000;stroke-width:23.57;stroke-miterlimit:22.9256" />
        <path
           class="fil0 str0"
           d="M 8.38,233.49 C 143.84,96.64 104.53,72.59 111.41,111.26 c 12.53,70.44 -27.82,105.32 -4.38,143.4 3.76,-22.69 84.32,-112.21 101.26,-146.16 l 8.95,-21.95"
           id="path2188"
           style="fill:none;stroke:#000000;stroke-width:23.57;stroke-miterlimit:22.9256" />
        <path
           class="fil0 str1"
           d="m 204.43,281.14 c 2.09,8.17 4.95,-8.57 0.74,6.25 -4.21,14.83 -15.55,0.15 -13.86,-2.92 4.99,-9.06 11.03,-11.5 13.12,-3.33 z"
           id="path2190"
           style="fill:none;stroke:#000000;stroke-width:11.79;stroke-miterlimit:22.9256" />
      </g>
    </g>
    <g
       id="g2529"
       style="clip-rule:evenodd;fill-rule:evenodd;image-rendering:optimizeQuality;shape-rendering:geometricPrecision;text-rendering:geometricPrecision"
       transform="matrix(0.01455943,-0.00352502,0.00278005,0.01283029,130.81305,87.853721)">
      <path
         class="fil0 str0"
         d="M 269.63,96.13 C 241.73,376.01 280.1,567.92 29.05,693.96 23.63,579.56 -34.02,19.73 200.08,18.91 c 157.09,-0.55 140.26,223.69 108.16,333 -194.06,660.89 78.56,449.44 152.35,106.35 30.67,-142.59 31.7,240.23 90.05,133.11 49.19,-90.31 -65.28,-374.1 -57.01,39.87 7.72,386.65 140.2,50.49 101.61,-219.53 -43.06,86.09 41.69,335.54 257.31,-67.88 C 1033.24,5.75 767.26,25.94 725.71,608.53 688.3,1132.96 998.28,460.02 868.17,420.08 796.38,530.93 845.12,748.4 1054.25,542.6 c 137.44,-135.25 -107.77,-235.68 -32.34,34.29 65.78,235.43 251.15,-61.06 197.37,-167.4 -74.57,97.28 -88.08,723.1 81.4,167.96 231.57,-758.49 175.8,-448.31 60.91,25.64 -30.36,125.24 107.33,44.46 74.85,-131.72 -115.08,87.44 -2.32,643.04 106.49,281.43 163.16,-542.27 -90.4,-186.85 48.78,-266.37"
         id="path2392"
         style="fill:none;stroke:#000000;stroke-width:37.83;stroke-miterlimit:22.9256" />
      <polyline
         class="fil0 str0"
         points="1240.46,218.1 1381.93,335.19 1599.91,344.94 "
         id="polyline2394"
         style="fill:none;stroke:#000000;stroke-width:37.83;stroke-miterlimit:22.9256" />
      <path
         class="fil0 str0"
         d="m 2182.01,115.65 c -21.27,84.43 -252.01,1260.3 -213.4,536.22 34.23,-641.99 572.11,-886.25 178.84,-120.85 -194.45,378.45 153.48,446.62 238.63,-22.86 22.01,-121.37 -10.38,92.17 70.81,167.4 46.27,-62.95 -69.73,-344.47 -95.62,-3.76 -29.97,394.47 167.54,-6.17 177.72,-240.3 -82.31,192.59 -128.79,654.93 131.44,240.72 35.51,-56.53 304.01,-414.6 184.83,-459 -146.09,271.56 -246.38,1141.88 151.1,30.94 73.32,-204.92 -305.75,465.64 10.87,532.46 103.76,21.9 144.79,-79.77 140.5,-163.36"
         id="path2396"
         style="fill:none;stroke:#000000;stroke-width:37.83;stroke-miterlimit:22.9256" />
    </g>
    <g
       id="g2729"
       style="clip-rule:evenodd;fill-rule:evenodd;image-rendering:optimizeQuality;shape-rendering:geometricPrecision;text-rendering:geometricPrecision"
       transform="matrix(0.01877528,0.00139653,-0.0015481,0.01773315,76.281076,82.494216)">
      <path
         class="fil0 str0"
         d="M 65.69,144.66 C -14.49,913.27 0.48,155.7 148.75,82.4 177.67,68.1 508.95,75.42 284.72,223.67 91.35,351.52 80.55,289.44 208.64,463.49 c 20.64,28.04 82.65,95.99 111.12,37.83"
         id="path2573"
         style="fill:none;stroke:#000000;stroke-width:35.29;stroke-miterlimit:22.9256" />
      <path
         class="fil0 str0"
         d="m 490.75,77.36 c 362.94,91.33 134.68,105.79 112.38,336.03 -18.87,194.79 135.56,1.7 175.47,-6.56 0,-46.15 -63.45,295.87 127.45,114.05 59.21,-56.4 155.03,-46.11 238.57,-254.48 14.13,-35.23 69.8,-245.59 -4.05,-248.76"
         id="path2575"
         style="fill:none;stroke:#000000;stroke-width:35.29;stroke-miterlimit:22.9256" />
      <path
         class="fil0 str0"
         d="m 993.99,354.75 c 87.67,140.38 148.47,213.56 269.14,63.1 121.72,-151.77 -244.81,-31.86 -93.25,122.57 128.34,130.77 328.01,-237.51 259.79,-156.35 -9,10.7 -91.99,338.87 107.07,80.96 13.09,-16.96 419.76,-609.3 204.78,-393.24 -374.55,376.44 -98.64,753.67 85.15,357.08 87.67,-189.18 -401.49,135.52 131.5,88.37 91.11,-8.06 91.22,-2.63 169.33,6.93"
         id="path2577"
         style="fill:none;stroke:#000000;stroke-width:35.29;stroke-miterlimit:22.9256" />
      <path
         class="fil0 str0"
         d="m 1525.22,187.75 c 161.82,-23.2 192.16,-31.87 352.67,5.02"
         id="path2579"
         style="fill:none;stroke:#000000;stroke-width:35.29;stroke-miterlimit:22.9256" />
      <path
         class="fil0 str0"
         d="m 2127.5,524.17 c 264.72,-108.19 279.93,-18.51 457.83,-4.41 80.9,6.41 172.94,-3.23 267.19,-20.24"
         id="path2581"
         style="fill:none;stroke:#000000;stroke-width:35.29;stroke-miterlimit:22.9256" />
    </g>
  </g>
</svg>
