<?xml version="1.0" encoding="UTF-8" standalone="no"?>
<!-- Created with Inkscape (http://www.inkscape.org/) -->

<svg
   width="201.98801mm"
   height="51.987999mm"
   viewBox="0 0 201.98801 51.987999"
   version="1.1"
   id="svg5"
   inkscape:version="1.2.2 (732a01da63, 2022-12-09)"
   sodipodi:docname="schrift_dergeraet_unterschriften_1.svg"
   xmlns:inkscape="http://www.inkscape.org/namespaces/inkscape"
   xmlns:sodipodi="http://sodipodi.sourceforge.net/DTD/sodipodi-0.dtd"
   xmlns="http://www.w3.org/2000/svg"
   xmlns:svg="http://www.w3.org/2000/svg">
  <sodipodi:namedview
     id="namedview7"
     pagecolor="#ffffff"
     bordercolor="#666666"
     borderopacity="1.0"
     inkscape:showpageshadow="2"
     inkscape:pageopacity="0.0"
     inkscape:pagecheckerboard="0"
     inkscape:deskcolor="#d1d1d1"
     inkscape:document-units="mm"
     showgrid="false"
     inkscape:zoom="1.4770342"
     inkscape:cx="324.29852"
     inkscape:cy="155.71745"
     inkscape:window-width="1920"
     inkscape:window-height="1129"
     inkscape:window-x="1912"
     inkscape:window-y="1"
     inkscape:window-maximized="1"
     inkscape:current-layer="layer1" />
  <defs
     id="defs2">
    <rect
       x="78.535759"
       y="105.61705"
       width="494.23364"
       height="243.73166"
       id="rect236" />
    <clipPath
       clipPathUnits="userSpaceOnUse"
       id="clipEmfPath1">
      <path
         d="M 0.50018801,0.20005994 H 365.11499 V 18.705887 H 0.50018801 Z"
         id="path240" />
    </clipPath>
    <clipPath
       clipPathUnits="userSpaceOnUse"
       id="clipEmfPath2">
      <path
         d="M 0.50018801,18.10934 H 365.11499 V 36.615166 H 0.50018801 Z"
         id="path243" />
    </clipPath>
    <clipPath
       clipPathUnits="userSpaceOnUse"
       id="clipEmfPath3">
      <path
         d="M 0.50018801,36.018574 H 365.11499 V 54.024243 H 0.50018801 Z"
         id="path246" />
    </clipPath>
    <pattern
       id="EMFhbasepattern"
       patternUnits="userSpaceOnUse"
       width="6"
       height="6"
       x="0"
       y="0" />
  </defs>
  <g
     inkscape:label="Ebene 1"
     inkscape:groupmode="layer"
     id="layer1"
     transform="translate(-25.69659,-53.282836)">
    <rect
       style="fill:#cccccc;stroke:none;stroke-width:0;stroke-linecap:square;stroke-dasharray:none;stroke-opacity:1;paint-order:markers fill stroke"
       id="rect436"
       width="200"
       height="50"
       x="26.690594"
       y="54.276836" />
    <rect
       style="fill:#ffffff;fill-opacity:1;stroke:#bdbdbd;stroke-width:0.15697;stroke-linecap:square;stroke-dasharray:none;stroke-opacity:1;paint-order:markers fill stroke"
       id="rect436-9"
       width="109.84303"
       height="40.710655"
       x="71.769073"
       y="58.921505" />
    <g
       id="g1384"
       style="clip-rule:evenodd;fill-rule:evenodd;image-rendering:optimizeQuality;shape-rendering:geometricPrecision;text-rendering:geometricPrecision"
       transform="matrix(0.0160847,0,0,0.0160847,72.327597,73.438857)">
      <path
         class="fil0 str0"
         d="m 182.19468,973.84259 c 51.11,220.19001 82.75,378.37001 354.72,226.13001 462.9,-259.13001 1216.72002,-1632.72001 798.37002,-297.73001 -411.10002,1311.87001 -722.42002,182.29001 -240.5,-311.47 340.08,-348.44 -181.98002,1002.28001 75.79,781.01001 79.56,-68.29 461.33,-1074.22001 412.63,-871.14001 -9.99,41.65 -449.82,1041.19001 -147.06,804.56001 316.56,-247.42 433.3,-1008.66001 148.41,-268.59 -155.13,402.99 10.24,444.42 308.15,155.05 148.73,-144.47 303.39,-319.90001 445.68,-473.01001"
         id="path1253"
         style="fill:none;stroke:#000000;stroke-width:53.97;stroke-miterlimit:22.9256" />
    </g>
    <g
       id="g1063"
       transform="matrix(0.81860012,0.05164896,-0.05164896,0.81860012,16.890796,3.8378661)">
      <path
         class="fil0 str0"
         d="m 97.14601,69.778883 c -0.0022,0.0052 -6.576785,14.325082 -3.93251,10.217542 1.361124,-2.114106 4.797972,-4.501453 5.819375,-8.577287 0.04274,-0.170053 2.357135,-2.85521 -1.864804,3.46044 -3.704208,5.540725 -0.329996,2.471849 0.911343,2.900997 -1.289736,0.138069 -0.415812,0.780719 0.916863,-0.05092 1.697013,0.589457 6.165983,-6.722406 3.476643,-5.489254 -4.337798,1.989484 -2.25157,10.590178 1.47596,3.277304 0.54956,-1.078564 -0.41873,-0.992237 0.68621,-0.969974 -1.68327,0.486207 0.69736,-2.10903 -1.61578,-1.440887 -0.0105,-0.133699 1.35132,-0.467922 0.0142,1.66106 -0.76448,1.217401 -0.53502,5.053985 1.8221,2.497838 1.02107,-1.107382 4.99001,-4.431931 3.48012,-6.140806 -1.82733,0.764377 6.00658,4.741974 0.7231,5.009771 -1.03923,0.05271 3.28021,1.287289 4.21551,-3.086642 0.33783,-1.580711 7.36646,-5.016013 3.12307,-2.650298 -3.95801,2.206526 -2.20154,8.577946 2.45882,2.294628 2.0824,-2.807313 1.35533,-1.034899 2.61408,-4.997674 1.69581,-5.339358 -3.59214,-5.486353 -0.49086,4.782855 0.93031,3.081329 -1.55867,0.985837 1.36316,-2.403266 1.76754,-2.050299 3.50033,2.469016 -0.5561,3.640698 0.0236,-0.0068 2.57118,1.870421 4.16914,-3.21376 1.3471,-4.285675 1.33422,-2.57317 4.06739,-5.630949 0.28188,-0.315045 0.76871,-1.821353 -0.3441,0.619494 -0.47583,1.043425 -2.95508,4.258552 -2.15232,5.004805 -1.32561,4.001383 1.41761,-1.972291 4.29714,-2.804031 -3.36694,0.972525 -4.26085,4.021661 -0.33915,2.888895 -4.46055,2.720369 1.23484,0.325329 2.49684,-1.25053 5.82663,-7.27577 -0.40625,-2.478134 -0.43074,-2.009677 -0.22323,4.328477 4.71928,0.749981 5.33045,0.453907"
         id="path710"
         style="clip-rule:evenodd;fill:none;fill-rule:evenodd;stroke:#000000;stroke-width:1.05818;stroke-miterlimit:22.9256;image-rendering:optimizeQuality;shape-rendering:geometricPrecision;text-rendering:geometricPrecision" />
      <path
         class="fil0 str0"
         d="m 85.025369,71.337883 c -8.927001,0.09252 -5.417071,3.528501 -6.205267,11.320298 -0.162566,1.608102 0.598757,4.962641 -0.161347,-0.304465 -1.010618,-7.007133 5.435552,-5.253532 4.464267,-6.278268 -4.925005,0.444438 -3.644991,4.178904 -5.296528,7.428004 -1.094658,2.153741 7.687144,-0.545585 6.134335,-0.09706"
         id="path712"
         style="clip-rule:evenodd;fill:none;fill-rule:evenodd;stroke:#000000;stroke-width:1.05818;stroke-miterlimit:22.9256;image-rendering:optimizeQuality;shape-rendering:geometricPrecision;text-rendering:geometricPrecision" />
      <path
         class="fil0 str1"
         d="m 87.972049,82.009944 c 0.191962,0.326241 0.106909,-0.431442 0.109683,0.260667 0.0032,0.691996 -0.668994,0.200418 -0.634194,0.04645 0.102307,-0.453183 0.332547,-0.633354 0.524508,-0.307114 z"
         id="path714"
         style="clip-rule:evenodd;fill:none;fill-rule:evenodd;stroke:#000000;stroke-width:0.529092;stroke-miterlimit:22.9256;image-rendering:optimizeQuality;shape-rendering:geometricPrecision;text-rendering:geometricPrecision" />
    </g>
    <g
       id="g1058"
       transform="matrix(0.81563794,-0.08665179,0.08665179,0.81563794,12.348596,25.005608)"
       inkscape:transform-center-x="-5.5928738"
       inkscape:transform-center-y="1.5399714">
      <path
         class="fil0 str0"
         d="m 142.0423,67.317254 c 7.38804,-1.928549 9.37359,-4.210303 14.66786,-5.805985 0.14435,-0.04351 -11.46995,9.088023 0.0914,4.076829 6.62198,-2.870205 5.33301,-3.791722 -2.30874,2.863178 -1.15921,1.009502 -3.23337,3.478223 -3.70831,3.697002"
         id="path881"
         style="clip-rule:evenodd;fill:none;fill-rule:evenodd;stroke:#000000;stroke-width:1.0583;stroke-miterlimit:22.9256;image-rendering:optimizeQuality;shape-rendering:geometricPrecision;text-rendering:geometricPrecision" />
      <path
         class="fil0 str0"
         d="m 155.75065,71.457481 c 8.59051,-4.676697 -1.00091,-2.154781 -1.95652,1.257135 6.11956,2.124891 6.45962,-7.451054 3.07656,2.093131 -0.38979,1.099651 1.903,-2.472723 4.80959,-2.943743 1.60337,-0.259876 5.70302,-0.661516 5.73478,-0.640473 -0.10787,-0.07147 2.59782,-1.119551 3.29246,-2.003439 -1.46014,0.455414 -12.32954,10.435061 -7.10603,8.529199 0.082,-0.02991 10.38903,-3.622599 7.80135,-3.244381 -6.51525,0.952293 -4.34591,7.564443 -1.18179,1.836989 1.28092,-2.318672 -2.06938,-0.252912 -0.0693,1.762184 1.03085,-0.841669 2.91273,-4.56477 3.00264,-0.595355 0.0311,1.373104 -1.10664,3.021922 -0.85444,4.983791 l 0.22384,-0.05958"
         id="path883"
         style="clip-rule:evenodd;fill:none;fill-rule:evenodd;stroke:#000000;stroke-width:1.0583;stroke-miterlimit:22.9256;image-rendering:optimizeQuality;shape-rendering:geometricPrecision;text-rendering:geometricPrecision" />
      <path
         class="fil0 str0"
         d="m 181.35633,79.875594 c -6.72768,-1.873667 -8.755,5.984159 -0.56187,4.228418 3.42601,-0.734108 -2.44857,-1.748799 -1.15504,-1.773119 6.76484,-0.127168 -2.53282,6.87468 1.39922,2.825327 3.12311,-3.216226 2.15302,1.014389 5.04835,-0.314695 -0.43627,-1.226138 -6.10356,7.409732 0.59237,3.836036 2.23333,-1.191892 1.25247,-2.711902 1.71669,-0.734555 2.69579,0.613585 4.40971,0.750115 2.08911,4.46804"
         id="path885"
         style="clip-rule:evenodd;fill:none;fill-rule:evenodd;stroke:#000000;stroke-width:1.0583;stroke-miterlimit:22.9256;image-rendering:optimizeQuality;shape-rendering:geometricPrecision;text-rendering:geometricPrecision" />
      <line
         class="fil0 str0"
         x1="188.34637"
         y1="82.378578"
         x2="190.9429"
         y2="84.098846"
         id="line887"
         style="clip-rule:evenodd;fill:none;fill-rule:evenodd;stroke:#000000;stroke-width:1.0583;stroke-miterlimit:22.9256;image-rendering:optimizeQuality;shape-rendering:geometricPrecision;text-rendering:geometricPrecision" />
    </g>
    <g
       id="g1214"
       style="clip-rule:evenodd;fill-rule:evenodd;image-rendering:optimizeQuality;shape-rendering:geometricPrecision;text-rendering:geometricPrecision"
       transform="matrix(0.00680487,-0.00125035,0.00125035,0.00680487,112.02233,87.61859)"
       inkscape:transform-center-x="10.031285"
       inkscape:transform-center-y="-1.9371177">
      <path
         class="fil0 str0"
         d="m 61.59,1494.11 c 74.77,-385.29 278.64,-821.82 572.22,-1102.25 0,545.4 -445.22,930.36 329.52,53.05 894.46,-1012.89 -119.17,264.69 39.24,560.59 129.23,241.39 1308.21,-666.25 508.64,-201.64 -546.44,317.53 -384.38,855.19 43.24,219.44 166.95,-248.21 -152.46,-197.03 -136.62,163.14 1.08,24.33 1174.13,-663.37 633.99,36.32 -361.13,467.82 -542.51,226.06 249.96,-374.22 881.59,-667.77 -790.19,-85.66 -206.73,385.84 232.63,188 1027.54,91.37 642.54,21.08"
         id="path1070"
         style="fill:none;stroke:#000000;stroke-width:125.46;stroke-miterlimit:22.9256" />
      <path
         class="fil0 str0"
         d="m 3724.85,190.9 c 299.26,919.81 -8.3,1975.33 132.63,1026.4 11.74,-79.06 126.7,-575.9 180.93,-545.69 106.01,59.05 278.71,-146.17 51.95,285.2 -0.59,1.13 -173.94,180.29 109,-131.52 876.8,-966.29 313.48,-156.02 -132.24,175.85 -152.93,113.87 -30.34,144.57 165.31,370.95 122.11,141.29 368.89,-420.72 683.4,-420.72 -525.75,0 -528.76,1009.34 -13.81,176.94 191.81,-310.07 -302.35,320.98 174.03,274.67 336.74,-32.74 162.44,-647.77 174.74,-129.34 7.81,328.87 398.29,103.59 340.06,-206.73 -251.08,-77.97 345.35,968.54 665.59,-409.09 110.63,-475.92 -125.47,-122.18 -192.92,94.83 -180.05,579.38 -328.87,522.94 -352.05,1175.68 -21.23,597.87 -149.91,485.76 -29.44,-136.61 23.69,-122.36 129.5,-560.82 198.37,-612.55 -0.47,4.33 33.76,400.88 182.02,109 191.92,-377.83 135.36,310.5 303,15.99 148.15,-260.27 110.57,293.51 305.17,3.27 246.74,-367.99 -137.73,498.91 562.78,-114.45 131.89,-115.48 -533.24,350.77 -69.03,243.79 326.7,-75.29 -17.04,-482.34 134.79,-35.97 41.17,121.06 301.26,-118.33 356.04,7.27 86.53,198.37 94.75,-138.91 279.76,-34.88 126.96,71.39 -151.19,238.77 193.27,5.07 421.52,-285.97 -45.76,232.54 261.96,87.93 191.03,-89.78 338.2,-22.52 254.67,95.55"
         id="path1072"
         style="fill:none;stroke:#000000;stroke-width:125.46;stroke-miterlimit:22.9256" />
    </g>
  </g>
</svg>
