<?xml version="1.0" encoding="UTF-8" standalone="no"?>
<!-- Created with Inkscape (http://www.inkscape.org/) -->

<svg
   width="210mm"
   height="297mm"
   viewBox="0 0 210 297"
   version="1.1"
   id="svg643"
   inkscape:version="1.2.2 (732a01da63, 2022-12-09)"
   sodipodi:docname="schrift_dergeraet_3.svg"
   xmlns:inkscape="http://www.inkscape.org/namespaces/inkscape"
   xmlns:sodipodi="http://sodipodi.sourceforge.net/DTD/sodipodi-0.dtd"
   xmlns="http://www.w3.org/2000/svg"
   xmlns:svg="http://www.w3.org/2000/svg">
  <sodipodi:namedview
     id="namedview645"
     pagecolor="#ffffff"
     bordercolor="#666666"
     borderopacity="1.0"
     inkscape:showpageshadow="2"
     inkscape:pageopacity="0.0"
     inkscape:pagecheckerboard="0"
     inkscape:deskcolor="#d1d1d1"
     inkscape:document-units="mm"
     showgrid="false"
     inkscape:zoom="0.84541947"
     inkscape:cx="128.33866"
     inkscape:cy="561.85127"
     inkscape:window-width="1920"
     inkscape:window-height="1129"
     inkscape:window-x="3832"
     inkscape:window-y="-8"
     inkscape:window-maximized="1"
     inkscape:current-layer="layer1" />
  <defs
     id="defs640" />
  <g
     inkscape:label="Layer 1"
     inkscape:groupmode="layer"
     id="layer1">
    <text
       xml:space="preserve"
       style="font-size:19.05px;line-height:1.25;font-family:'Virgil 3 YOFF';-inkscape-font-specification:'Virgil 3 YOFF Normal';white-space:pre;inline-size:59.8196;stroke-width:0.264583"
       x="30.357216"
       y="41.936775"
       id="text766"
       transform="translate(-3.3497574,2.1907271)"><tspan
         x="30.357216"
         y="41.936775"
         id="tspan476"><tspan
           style="font-family:'Freestyle Script';-inkscape-font-specification:'Freestyle Script'"
           id="tspan474">Der Gerät!</tspan></tspan></text>
    <text
       xml:space="preserve"
       style="font-size:19.05px;line-height:1.25;font-family:'Virgil 3 YOFF';-inkscape-font-specification:'Virgil 3 YOFF Normal';stroke-width:0.264583"
       x="26.571747"
       y="76.377647"
       id="text770"><tspan
         sodipodi:role="line"
         id="tspan768"
         style="stroke-width:0.264583"
         x="26.571747"
         y="76.377647">Der Gerät!</tspan></text>
    <text
       xml:space="preserve"
       style="font-size:19.05px;line-height:1.25;font-family:'Virgil 3 YOFF';-inkscape-font-specification:'Virgil 3 YOFF Normal';stroke-width:0.264583"
       x="25.844944"
       y="106.14177"
       id="text774"><tspan
         sodipodi:role="line"
         id="tspan772"
         style="font-style:normal;font-variant:normal;font-weight:normal;font-stretch:normal;font-size:19.05px;font-family:'French Script MT';-inkscape-font-specification:'French Script MT, Normal';font-variant-ligatures:normal;font-variant-caps:normal;font-variant-numeric:normal;font-variant-east-asian:normal;stroke-width:0.264583"
         x="25.844944"
         y="106.14177">Der Gerät!</tspan></text>
    <text
       xml:space="preserve"
       style="font-size:19.05px;line-height:1.25;font-family:'Virgil 3 YOFF';-inkscape-font-specification:'Virgil 3 YOFF Normal';stroke-width:0.264583"
       x="27.162296"
       y="134.69859"
       id="text778"><tspan
         sodipodi:role="line"
         id="tspan776"
         style="font-style:normal;font-variant:normal;font-weight:normal;font-stretch:normal;font-size:19.05px;font-family:'Ink Free';-inkscape-font-specification:'Ink Free, Normal';font-variant-ligatures:normal;font-variant-caps:normal;font-variant-numeric:normal;font-variant-east-asian:normal;stroke-width:0.264583"
         x="27.162296"
         y="134.69859">Der Gerät!</tspan></text>
    <text
       xml:space="preserve"
       style="font-size:19.05px;line-height:1.25;font-family:'Virgil 3 YOFF';-inkscape-font-specification:'Virgil 3 YOFF Normal';stroke-width:0.264583"
       x="26.049583"
       y="168.45287"
       id="text782"><tspan
         sodipodi:role="line"
         id="tspan780"
         style="font-style:normal;font-variant:normal;font-weight:normal;font-stretch:normal;font-size:19.05px;font-family:Papyrus;-inkscape-font-specification:'Papyrus, Normal';font-variant-ligatures:normal;font-variant-caps:normal;font-variant-numeric:normal;font-variant-east-asian:normal;stroke-width:0.264583"
         x="26.049583"
         y="168.45287">Der Gerät!</tspan></text>
    <text
       xml:space="preserve"
       style="font-size:19.05px;line-height:1.25;font-family:'Virgil 3 YOFF';-inkscape-font-specification:'Virgil 3 YOFF Normal';stroke-width:0.264583"
       x="24.747337"
       y="200.43005"
       id="text786"><tspan
         sodipodi:role="line"
         id="tspan784"
         style="font-style:normal;font-variant:normal;font-weight:normal;font-stretch:normal;font-size:19.05px;font-family:'Segoe Script';-inkscape-font-specification:'Segoe Script, Normal';font-variant-ligatures:normal;font-variant-caps:normal;font-variant-numeric:normal;font-variant-east-asian:normal;stroke-width:0.264583"
         x="24.747337"
         y="200.43005">Der Gerät!</tspan></text>
    <g
       id="g1082"
       transform="translate(3.3779342)">
      <path
         class="fil0 str0"
         d="m 94.62752,227.08197 c 0,-2.41395 -0.01333,-1.02513 -0.253078,-2.557 l -0.253076,-6.00954 c -0.15229,-0.474 -0.126539,-0.36593 -0.126539,-0.89509"
         id="path847"
         style="clip-rule:evenodd;fill:none;fill-rule:evenodd;stroke:#000000;stroke-width:1.27215;stroke-linecap:square;stroke-miterlimit:22.9256;image-rendering:optimizeQuality;shape-rendering:geometricPrecision;text-rendering:geometricPrecision" />
      <path
         class="fil0 str0"
         d="m 83.360715,219.15445 c 0.03286,-0.4305 0.09368,-0.46458 0.126538,-0.89508"
         id="path849"
         style="clip-rule:evenodd;fill:none;fill-rule:evenodd;stroke:#000000;stroke-width:1.27215;stroke-linecap:square;stroke-miterlimit:22.9256;image-rendering:optimizeQuality;shape-rendering:geometricPrecision;text-rendering:geometricPrecision" />
      <path
         class="fil0 str0"
         d="m 80.702519,219.28226 c 0.0085,-0.39866 0.05906,-0.53499 0.126539,-0.89509"
         id="path851"
         style="clip-rule:evenodd;fill:none;fill-rule:evenodd;stroke:#000000;stroke-width:1.27215;stroke-linecap:square;stroke-miterlimit:22.9256;image-rendering:optimizeQuality;shape-rendering:geometricPrecision;text-rendering:geometricPrecision" />
      <path
         class="fil0 str0"
         d="m 32.597934,224.65233 c -0.168275,0.43767 -0.126539,0.24171 -0.126539,0.76728 -0.317012,0.55517 -0.765447,1.67896 -1.012752,2.30139 l -0.506597,0.51123 c -0.241533,0.41435 -0.215337,0.73767 -1.13929,1.53456 -0.406256,0.29776 -0.21223,0.10535 -0.506598,0.51122 -0.927949,0.63319 -1.820822,1.43008 -2.911716,1.66237 -0.283712,0.12556 -1.066475,0.74037 -2.025503,0.25561 v -1.66237 c -0.31568,-0.98298 -0.126538,-2.36552 -0.126538,-3.4521 0.48129,-3.0754 0.008,-4.78439 0.126538,-5.49787 0.138082,-0.82917 0.253077,0.0857 0.253077,-1.91798 m 0,0 c -0.188697,-0.61166 -0.0018,-0.56144 0.379615,-1.15069 m 2.658195,-0.25561 c -0.464418,0.18207 -0.3512,0.1278 -0.886212,0.1278 -0.433339,0.16996 -1.252065,0.12781 -1.772427,0.12781 m 7.595414,6.13735 c 0,-2.30992 0.26773,-3.04356 -1.012751,-4.8584 -0.575861,-0.81616 -1.322216,-0.87939 -1.645888,-1.0229 -0.505709,-0.36367 -0.308576,-0.19417 -0.886213,-0.3834 -0.616708,0 -0.829826,0.0565 -1.392366,-0.12781"
         id="path853"
         style="clip-rule:evenodd;fill:none;fill-rule:evenodd;stroke:#000000;stroke-width:1.27215;stroke-linecap:square;stroke-miterlimit:22.9256;image-rendering:optimizeQuality;shape-rendering:geometricPrecision;text-rendering:geometricPrecision" />
      <path
         class="fil0 str0"
         d="m 91.589265,228.36047 c 0.269505,0.34441 0.520361,0.5619 0.379615,1.40632 -0.143409,0.41839 -0.217113,0.55068 -0.253076,1.02288 -0.216669,0.47626 -1.269825,1.24039 -2.152042,0.76729 -0.634024,-0.33992 -0.632692,-1.1498 -0.632692,-1.1507 -0.514146,-0.70764 -0.488838,-1.58613 -0.759674,-2.42919 v -0.76729 c -0.313017,-0.97535 -0.126539,-4.23506 -0.126539,-5.49787 m 0.253076,0 c 0.577194,0.22646 1.36262,0.1278 2.025503,0.1278 0.52569,-0.1722 0.564318,-0.1278 1.139291,-0.1278 m -4.937219,-0.12781 h 0.886213 c 0.371623,0.12422 0.233096,0.0969 0.633136,0.12781 h 0.253076 v -0.76729 c 0.15229,-0.47399 0.126539,-0.36592 0.126539,-0.89508 0.122986,-0.37534 0.0959,-0.23499 0.126539,-0.63903"
         id="path855"
         style="clip-rule:evenodd;fill:none;fill-rule:evenodd;stroke:#000000;stroke-width:1.27215;stroke-linecap:square;stroke-miterlimit:22.9256;image-rendering:optimizeQuality;shape-rendering:geometricPrecision;text-rendering:geometricPrecision" />
      <path
         class="fil0 str0"
         d="m 43.864295,232.19599 -0.379616,-3.32429 c -0.216669,-0.67491 -0.126538,-1.54173 -0.126538,-2.3014 0.170494,-0.53094 0.126538,-0.56997 0.126538,-1.15069 0.165166,-0.55203 0.165166,-0.21526 0,-0.76728 -0.07903,-0.53993 0.209121,-1.08209 0.253077,-1.66236 m 4.177545,0.51166 c 0.188697,-0.51975 0.184258,-0.19373 0,-0.76728 -0.0959,-0.61212 0.32234,-0.42019 -0.632693,-1.40631 -1.878541,0 -1.114426,0.33947 -2.152042,1.0229 -0.567868,0.23004 -0.819169,0.5175 -1.392366,0.63903 -0.372511,-0.32288 -0.253076,-0.0969 -0.253076,-0.76729"
         id="path857"
         style="clip-rule:evenodd;fill:none;fill-rule:evenodd;stroke:#000000;stroke-width:1.27215;stroke-linecap:square;stroke-miterlimit:22.9256;image-rendering:optimizeQuality;shape-rendering:geometricPrecision;text-rendering:geometricPrecision" />
      <path
         class="fil0 str0"
         d="m 72.727046,231.94038 c -0.0098,-0.46055 -0.122098,-0.99733 -0.253077,-1.40632 v -0.63903 c -0.102118,-0.31838 -0.150958,-0.57668 -0.253077,-0.89508 l -0.126538,-3.06867 c 0.191805,-0.59733 0.191805,-0.80898 0,-1.40631 0.200686,-0.52243 0.126538,-0.81436 0.126538,-1.40631 m 4.430621,0.12781 c -0.0333,-0.42871 -0.223773,-1.77583 -0.506597,-2.04579 -0.208678,-0.0839 -0.424459,-0.1695 -0.632693,-0.25561 -0.401815,0.17489 -0.929724,0.20315 -1.139289,0.38342 -0.499495,0.43005 -0.313017,1.04532 -2.152042,1.79017 -0.397819,-0.56369 -0.253077,-0.68072 -0.253077,-1.4063"
         id="path859"
         style="clip-rule:evenodd;fill:none;fill-rule:evenodd;stroke:#000000;stroke-width:1.27215;stroke-linecap:square;stroke-miterlimit:22.9256;image-rendering:optimizeQuality;shape-rendering:geometricPrecision;text-rendering:geometricPrecision" />
      <path
         class="fil0 str0"
         d="m 83.740774,231.42915 0.368072,-0.64575 0.01198,-0.63274 c 0.191361,-0.59554 0.126538,-1.00183 0.126538,-1.66238 0.182483,-0.56817 0.126539,-0.78342 0.126539,-1.40631 m -0.759674,5.11446 c 0.02309,-0.30359 0.07325,-0.48297 0.126537,-0.76728 l -2.025503,0.25562 c -0.980783,0.20493 0.302361,0.36278 -1.139289,0.1278 h -0.632692 c -0.37784,-0.13542 -1.121975,-0.88612 -1.265829,-1.27851 -0.301028,-0.82019 -0.267285,-1.722 0.253077,-2.42919 0.943488,-1.2821 4.169997,-1.0229 5.443373,-1.0229 l -0.126539,-3.06867 c -0.232209,-1.21527 -1.203669,-2.4292 -2.531657,-2.4292 l -1.265828,0.25561 -1.392366,1.40631 c -0.02309,0.3036 -0.07325,0.48297 -0.126539,0.76728"
         id="path861"
         style="clip-rule:evenodd;fill:none;fill-rule:evenodd;stroke:#000000;stroke-width:1.27215;stroke-linecap:square;stroke-miterlimit:22.9256;image-rendering:optimizeQuality;shape-rendering:geometricPrecision;text-rendering:geometricPrecision" />
      <path
         class="fil0 str0"
         d="m 35.12959,226.3147 c 0.882218,0.8036 1.878985,0.59552 2.152042,0.63947 0.262844,0.0417 1.074911,0.39553 1.898964,0.25561 0.656224,-0.22915 0.701955,-0.12556 1.265828,-0.63903 l 0.253078,-2.4292 c -0.114104,-0.73051 -0.148739,-1.01033 -0.506154,-1.4063 -0.47241,-0.52333 -1.207221,-0.8081 -1.898964,-0.63947 -0.397376,0.0969 -1.363064,0.58431 -1.645888,0.89508 l -1.392367,2.30139 -0.126539,1.02289 c -0.780986,0.59149 -0.13009,1.1951 -0.506597,2.17359 0.305911,0.79553 -0.111891,0.73679 0.126537,1.53411 0.01688,0.78702 0.812954,1.53949 1.392368,2.17359 2.409558,0.84172 1.266272,0.63589 3.164792,-0.25561 m 0,0 c 0.01465,-0.0341 0.238869,-0.47759 0.253078,-0.51121 0.380502,-0.22692 0.214893,-0.16683 0.632692,-0.25562 0.57586,-0.58162 0.815173,-0.51481 0.633135,-1.1507"
         id="path863"
         style="clip-rule:evenodd;fill:none;fill-rule:evenodd;stroke:#000000;stroke-width:1.27215;stroke-linecap:square;stroke-miterlimit:22.9256;image-rendering:optimizeQuality;shape-rendering:geometricPrecision;text-rendering:geometricPrecision" />
      <path
         class="fil0 str0"
         d="m 62.726514,232.32379 c -0.623368,-0.23094 -0.277497,-0.1879 -0.886214,0.12781 -0.247748,-0.39149 -0.387163,-0.38925 -0.506154,-1.1507 -0.122098,-0.77939 0.362301,-0.4453 -0.632691,-1.53411 m -0.126539,-3.7077 v 2.42919 c 0.17671,0.55114 0.126539,0.6758 0.126539,1.27851 -1.913616,1.03723 -0.889322,0.50808 -1.641448,1.40944 -0.36008,0.4314 -1.496705,1.13141 -2.029943,1.27581 -0.508818,0 -0.250414,-0.022 -0.633136,0.12781 -0.484398,-0.19014 -0.464418,-0.12781 -1.012752,-0.12781 l -1.518905,-1.53456 c -0.04884,-0.25561 -0.07903,-0.38386 -0.126539,-0.63903 -0.356971,-0.49104 -0.366296,-0.52512 -0.379615,-1.15069 -0.376507,-0.53364 -0.253076,-0.31929 -0.253076,-1.02289 -0.08481,-0.54216 -0.383168,-1.59869 -0.253078,-2.4292 l 0.253078,-2.68526 c 0.207345,-0.6045 0.491945,-1.24577 0.506154,-1.91798 0.201572,-0.33946 0.248192,-0.43678 0.506153,-0.76728 0.06261,-0.64262 0.0049,-0.37714 0.506598,-0.89509 0.740138,-0.91616 0.966575,-1.21707 2.15204,-1.4063 0.888878,-0.14216 2.125402,0.22826 2.658196,0.89509 l 0.886213,2.42919"
         id="path865"
         style="clip-rule:evenodd;fill:none;fill-rule:evenodd;stroke:#000000;stroke-width:1.27215;stroke-linecap:square;stroke-miterlimit:22.9256;image-rendering:optimizeQuality;shape-rendering:geometricPrecision;text-rendering:geometricPrecision" />
      <path
         class="fil0 str0"
         d="m 63.865803,226.3147 c 0.764559,0.44574 1.430551,0.24798 2.27858,0.38342 0.62914,0.10039 1.734243,0.65561 3.038255,-0.38342 0.0098,-0.46011 0.237537,-1.76417 0.126539,-2.4292 -0.229102,-1.37627 -0.699736,-1.86776 -1.898966,-2.04579 -1.062034,-0.15785 -2.133393,0.82244 -2.658639,1.66237 -0.527021,0.84261 -0.864013,1.78569 -0.886213,2.81262 -0.376507,0.53364 -0.253076,0.31973 -0.253076,1.02289 -0.11189,0.31435 -0.0706,0.21928 -0.126539,0.51122 l 0.379615,2.30139 0.506598,0.51123 c 0.110108,0.2417 -0.02353,1.35518 1.898965,1.66236 0.910188,0.1453 1.993535,-0.60495 2.658638,-1.1507 0.444884,-0.36503 0.618485,-0.70001 0.886214,-1.15069"
         id="path867"
         style="clip-rule:evenodd;fill:none;fill-rule:evenodd;stroke:#000000;stroke-width:1.27215;stroke-linecap:square;stroke-miterlimit:22.9256;image-rendering:optimizeQuality;shape-rendering:geometricPrecision;text-rendering:geometricPrecision" />
      <line
         class="fil0 str0"
         x1="95.133675"
         y1="231.94037"
         x2="94.880592"
         y2="231.55696"
         id="line869"
         style="clip-rule:evenodd;fill:none;fill-rule:evenodd;stroke:#000000;stroke-width:1.27215;stroke-linecap:square;stroke-miterlimit:22.9256;image-rendering:optimizeQuality;shape-rendering:geometricPrecision;text-rendering:geometricPrecision" />
    </g>
    <text
       xml:space="preserve"
       style="font-size:19.05px;line-height:1.25;font-family:'Virgil 3 YOFF';-inkscape-font-specification:'Virgil 3 YOFF Normal';stroke-width:0.264583"
       x="19.408258"
       y="268.51245"
       id="text786-4"><tspan
         sodipodi:role="line"
         id="tspan784-6"
         style="font-style:normal;font-variant:normal;font-weight:normal;font-stretch:normal;font-size:19.05px;font-family:'Segoe Script';-inkscape-font-specification:'Segoe Script, Normal';font-variant-ligatures:normal;font-variant-caps:normal;font-variant-numeric:normal;font-variant-east-asian:normal;stroke-width:0.264583"
         x="19.408258"
         y="268.51245">Der Gerät!</tspan></text>
  </g>
</svg>
