<?xml version="1.0" encoding="UTF-8" standalone="no"?>
<!-- Created with Inkscape (http://www.inkscape.org/) -->

<svg
   width="100.91005mm"
   height="16.356123mm"
   viewBox="0 0 100.91005 16.356123"
   version="1.1"
   id="svg266"
   inkscape:version="1.2.2 (732a01da63, 2022-12-09)"
   sodipodi:docname="schrift_dergeraet_2.svg"
   xmlns:inkscape="http://www.inkscape.org/namespaces/inkscape"
   xmlns:sodipodi="http://sodipodi.sourceforge.net/DTD/sodipodi-0.dtd"
   xmlns="http://www.w3.org/2000/svg"
   xmlns:svg="http://www.w3.org/2000/svg">
  <sodipodi:namedview
     id="namedview268"
     pagecolor="#ffffff"
     bordercolor="#666666"
     borderopacity="1.0"
     inkscape:showpageshadow="2"
     inkscape:pageopacity="0.0"
     inkscape:pagecheckerboard="0"
     inkscape:deskcolor="#d1d1d1"
     inkscape:document-units="mm"
     showgrid="false"
     showguides="true"
     inkscape:zoom="1.6908389"
     inkscape:cx="236.27324"
     inkscape:cy="56.776549"
     inkscape:window-width="1920"
     inkscape:window-height="1129"
     inkscape:window-x="1912"
     inkscape:window-y="1"
     inkscape:window-maximized="1"
     inkscape:current-layer="layer1">
    <sodipodi:guide
       position="-32.264922,18.971246"
       orientation="1,0"
       id="guide608"
       inkscape:locked="false" />
  </sodipodi:namedview>
  <defs
     id="defs263" />
  <g
     inkscape:label="Layer 1"
     inkscape:groupmode="layer"
     id="layer1"
     transform="translate(-30.074195,-59.574023)">
    <g
       aria-label="Der Gerät!"
       id="text441"
       style="font-size:19.05px;line-height:1.25;font-family:'Virgil 3 YOFF';-inkscape-font-specification:'Virgil 3 YOFF Normal';stroke-width:0.264583">
      <path
         d="m 30.455195,72.204172 c -0.24765,0.2286 -0.40005,0.59055 -0.24765,0.93345 0.17145,0.4191 0.43815,0.78105 0.93345,0.74295 h 0.24765 c 2.152649,-0.2286 -0.17145,-0.0381 2.076449,-0.28575 2.26695,-0.3429 4.1148,-0.381 6.22935,-1.04775 1.7145,-0.70485 3.2004,-1.16205 3.8862,-2.9718 0.36195,-1.7907 -1.0668,-3.33375 -2.2098,-4.66725 -2.26695,-2.3622 -6.2865,-4.114799 -9.334499,-4.991099 -0.20955,-0.05715 -0.36195,-0.0762 -0.4572,-0.09525 l -0.3048,-0.17145 c -0.1524,-0.05715 -0.3048,-0.0762 -0.4191,-0.0762 -0.36195,0 -0.6096,0.20955 -0.78105,0.5715 0.13335,0.914399 0.6477,1.447799 3.619499,2.381249 l 0.05715,0.0762 c 0.01905,0.01905 0.01905,0.01905 0.01905,0.01905 -0.05715,0.17145 -0.59055,0.28575 -0.55245,0.62865 0.17145,1.69545 -0.13335,3.52425 -0.0381,5.23875 v 0.1905 c 0.17145,0.97155 0.1905,2.26695 1.0668,2.87655 0.0762,0.05715 0.40005,0.1143 0.47625,0.1143 l 0.01905,0.1143 c -0.1905,0 -1.00965,0.13335 -1.1811,0.1524 l -0.4191,0.05715 c -0.09525,-0.01905 -0.266699,-0.0381 -0.571499,-0.05715 l -0.5334,0.01905 c -0.3429,0.0381 -1.2954,0.0381 -1.58115,0.24765 z m 4.972049,-0.9144 c 0.0762,-0.05715 0.1143,-0.1905 0.1143,-0.24765 0.0381,-0.2667 0.01905,-0.66675 -0.0381,-0.9525 -0.2667,-0.55245 -0.36195,-1.12395 -0.51435,-1.69545 -0.0762,-0.9906 -0.1143,-2.0574 -0.13335,-3.0099 0.05715,-0.89535 0.17145,-1.54305 -0.1905,-2.4003 -0.0762,-0.13335 -0.1524,-0.20955 -0.17145,-0.2286 h 0.13335 c 1.73355,0.4572 3.2004,1.2954 4.6863,2.30505 1.0287,0.97155 2.26695,2.11455 2.53365,3.52425 l 0.01905,0.4191 c 0,0.05715 -0.05715,0.1905 -0.1143,0.24765 -0.13335,0.20955 -0.74295,0.8001 -0.81915,0.85725 -1.42875,0.8763 -3.3147,1.2954 -5.01015,1.4097 l -0.7239,0.01905 z"
         id="path493" />
      <path
         d="m 46.552457,67.803622 c -0.8763,1.3716 -1.77165,2.91465 -1.3335,4.59105 0.4572,1.0668 1.143,1.9812 2.1717,2.5146 1.0287,0.62865 2.07645,0.9144 3.21945,0.85725 1.04775,0.0381 2.07645,-0.3429 3.10515,-0.6096 0.6096,-0.0381 1.2192,-0.3048 1.69545,-0.8382 v -0.70485 c -0.0381,-0.24765 -0.20955,-0.381 -0.381,-0.3429 h -0.13335 c -0.8001,0.05715 -1.1049,0.0762 -1.77165,0.3429 -0.93345,0.24765 -1.7145,0.59055 -2.6289,0.47625 -1.6764,0.1143 -3.429,-1.2573 -3.71475,-2.8956 -0.01905,-0.47625 0.3429,-1.04775 0.6096,-1.4478 0.0381,-0.01905 0.09525,-0.01905 0.13335,0 0.0381,0 0.43815,0.32385 0.47625,0.36195 0.66675,0.40005 1.42875,0.7239 2.19075,0.7239 0.2667,0 0.55245,-0.0381 0.81915,-0.13335 1.3335,-0.09525 2.667,-1.39065 2.64795,-2.76225 -0.0762,-1.61925 -1.50495,-2.5146 -2.99085,-2.5527 -0.40005,-0.01905 -0.66675,0.0762 -1.1049,0.13335 -1.2573,0.40005 -2.22885,1.27635 -3.0099,2.286 z m 1.4859,0.9144 c 0,-0.05715 0.05715,-0.13335 0.0762,-0.1905 0.6477,-0.6477 1.4478,-1.42875 2.41935,-1.4478 0.5715,0.2286 1.524,0.32385 1.31445,1.08585 -0.24765,0.4191 -0.81915,0.70485 -1.31445,0.85725 -0.62865,0 -1.2192,0.05715 -1.80975,-0.24765 -0.09525,-0.01905 -0.59055,-0.05715 -0.6858,-0.05715 z"
         id="path495" />
      <path
         d="m 55.696473,68.127472 c -0.209549,1.1049 -0.247649,3.10515 -0.247649,4.32435 0.1143,0.3429 0.380999,0.85725 0.723899,1.0668 0.17145,0.13335 0.36195,0.2286 0.55245,0.2286 0.1524,0 0.3048,-0.0762 0.4191,-0.2286 0.32385,-0.55245 0.7239,-1.143 0.36195,-1.7907 -0.2667,-1.00965 -0.0762,-2.0193 -0.13335,-3.048 0.1905,-0.55245 0.51435,-0.9525 0.85725,-1.4097 0.01905,-0.01905 0.09525,-0.1143 0.1143,-0.1143 0.6477,-0.36195 1.35255,-0.2286 2.03835,-0.24765 0.762,0.05715 1.2954,0.4953 2.0193,0.89535 0.32385,0.1524 0.89535,0.24765 1.23825,0.1905 0.24765,-0.05715 0.1143,-0.6096 0.13335,-0.8382 -0.5334,-0.5334 -1.69545,-1.31445 -2.30505,-1.69545 -0.5715,-0.3048 -1.39065,-0.4572 -2.19075,-0.4572 -0.66675,0 -1.31445,0.1143 -1.77165,0.3429 -0.8763,0.8001 -1.6002,1.54305 -1.80975,2.7813 z"
         id="path497" />
      <path
         d="m 80.061474,72.913103 c -0.1143,0.6477 -0.13335,1.4859 -0.1143,2.15265 0.1905,0.17145 0.4191,0.59055 0.7239,0.4953 0.05715,0 0.2286,-0.01905 0.24765,-0.01905 0.66675,-0.43815 0.762,-1.5621 1.08585,-2.26695 0.47625,-0.9144 0.9144,-2.4384 1.08585,-3.429 -0.01905,-0.78105 -0.5334,-1.6002 -1.2192,-2.00025 -1.143,-0.6096 -2.7051,-0.62865 -4.09575,-0.8382 -0.32385,-0.1905 -1.50495,-0.36195 -1.92405,-0.4953 -0.01905,0 -0.1905,-0.05715 -0.24765,-0.1143 -0.4953,-0.5334 -1.1811,-0.32385 -1.80975,-0.36195 -0.43815,0.20955 -0.51435,0.6477 -0.4953,1.143 -0.0762,0.5715 0.1143,0.762 0.4953,1.143 0.66675,0.2286 1.39065,0.1905 2.0574,0.4953 0.17145,0.3048 0.4572,0.59055 0.70485,0.8382 0.3429,0.51435 -0.09525,1.1049 -0.59055,1.3335 -0.93345,0.36195 -1.92405,0.74295 -2.8956,0.59055 -1.2192,-0.0381 -2.5146,-1.00965 -2.64795,-2.286 -0.0762,-1.2192 0.7239,-2.07645 1.58115,-2.8956 1.2192,-1.0668 2.15265,-2.0574 3.7338,-2.53365 h 0.36195 c 0.7239,-0.0381 1.20015,-0.2286 1.80975,-0.7239 0.6858,-0.36195 0.9144,-0.9525 0.8382,-1.6764 -0.2667,-0.457199 -0.89535,-0.819149 -1.4478,-0.723899 -0.09525,0.0381 -0.81915,0.381 -0.97155,0.476249 l -0.2286,0.24765 c -0.0762,0.0381 -0.6858,0.32385 -0.7239,0.36195 -1.0668,0.62865 -2.30505,1.2954 -3.14325,2.1717 -1.2573,0.8763 -2.647949,2.0955 -3.257549,3.48615 -0.6858,1.3335 -0.6096,2.76225 0.24765,3.98145 0.8763,1.08585 2.362199,1.96215 3.848099,1.80975 1.5621,0.01905 2.8575,-0.28575 4.2291,-1.2192 1.04775,-0.59055 1.31445,-2.07645 0.97155,-3.1242 0.47625,0 1.00965,-0.0762 1.42875,0.1143 0.6096,0.1905 1.39065,0.05715 1.4478,0.85725 0.09525,0.78105 -0.20955,1.31445 -0.55245,2.0955 -0.24765,0.43815 -0.2667,0.5715 -0.5334,0.9144 z"
         id="path499"
         sodipodi:nodetypes="ccccccccccccccccccccccccccccccccccccc" />
      <path
         d="m 85.338316,67.960103 c -0.8763,1.3716 -1.77165,2.91465 -1.3335,4.59105 0.4572,1.0668 1.143,1.9812 2.1717,2.5146 1.0287,0.62865 2.07645,0.9144 3.21945,0.85725 1.04775,0.0381 2.07645,-0.3429 3.105149,-0.6096 0.6096,-0.0381 1.2192,-0.3048 1.69545,-0.8382 v -0.70485 c -0.0381,-0.24765 -0.20955,-0.381 -0.381,-0.3429 h -0.13335 c -0.8001,0.05715 -1.1049,0.0762 -1.771649,0.3429 -0.93345,0.24765 -1.7145,0.59055 -2.6289,0.47625 -1.6764,0.1143 -3.429,-1.2573 -3.71475,-2.8956 -0.01905,-0.47625 0.3429,-1.04775 0.6096,-1.4478 0.0381,-0.01905 0.09525,-0.01905 0.13335,0 0.0381,0 0.43815,0.32385 0.47625,0.36195 0.66675,0.40005 1.42875,0.7239 2.19075,0.7239 0.2667,0 0.55245,-0.0381 0.81915,-0.13335 1.3335,-0.09525 2.666999,-1.39065 2.647949,-2.76225 -0.0762,-1.61925 -1.504949,-2.5146 -2.990849,-2.5527 -0.40005,-0.01905 -0.66675,0.0762 -1.1049,0.13335 -1.2573,0.40005 -2.22885,1.27635 -3.0099,2.286 z m 1.4859,0.9144 c 0,-0.05715 0.05715,-0.13335 0.0762,-0.1905 0.6477,-0.6477 1.4478,-1.42875 2.41935,-1.4478 0.5715,0.2286 1.524,0.32385 1.31445,1.08585 -0.24765,0.4191 -0.81915,0.70485 -1.31445,0.85725 -0.62865,0 -1.2192,0.05715 -1.80975,-0.24765 -0.09525,-0.01905 -0.59055,-0.05715 -0.6858,-0.05715 z"
         id="path501"
         sodipodi:nodetypes="cccccccccccccccscccccccccccc" />
      <path
         d="m 94.482334,68.283953 c -0.20955,1.1049 -0.24765,3.10515 -0.24765,4.32435 0.1143,0.3429 0.381,0.85725 0.7239,1.0668 0.17145,0.13335 0.36195,0.2286 0.55245,0.2286 0.152402,0 0.304802,-0.0762 0.419102,-0.2286 0.32385,-0.55245 0.7239,-1.143 0.36195,-1.7907 -0.2667,-1.00965 -0.0762,-2.0193 -0.13335,-3.048 0.1905,-0.55245 0.51435,-0.9525 0.85725,-1.4097 0.019,-0.01905 0.0952,-0.1143 0.1143,-0.1143 0.6477,-0.36195 1.35255,-0.2286 2.03835,-0.24765 0.762,0.05715 1.295404,0.4953 2.019304,0.89535 0.32385,0.1524 0.89535,0.24765 1.23825,0.1905 0.24765,-0.05715 0.1143,-0.6096 0.13335,-0.8382 -0.5334,-0.5334 -1.69545,-1.31445 -2.30505,-1.69545 -0.571504,-0.3048 -1.390654,-0.4572 -2.190754,-0.4572 -0.66675,0 -1.31445,0.1143 -1.77165,0.3429 -0.876302,0.8001 -1.600202,1.54305 -1.809752,2.7813 z"
         id="path503"
         sodipodi:nodetypes="cccsccccccccccscc" />
      <path
         d="m 107.89354,63.826253 c 0.1143,0.24765 0.40005,0.40005 0.74295,0.7239 l 0.36195,0.24765 c 0,0 0.1143,0.01905 0.17145,0.01905 0.85725,0 0.93345,-0.70485 0.93345,-0.9144 v -0.24765 c 0,-0.85725 -0.8001,-0.762 -0.97155,-0.8001 -0.0571,0 -0.2286,-0.0762 -0.24765,-0.0762 h -0.1143 c -0.43815,0.17145 -0.8001,0.5334 -0.8763,0.7239 z m -4.3434,0.05715 c 0.1143,0.2286 0.381,0.40005 0.74295,0.7239 l 0.36195,0.24765 h 0.17145 c 0.85725,0 0.93345,-0.70485 0.93345,-0.89535 v -0.24765 c 0,-0.85725 -0.8001,-0.762 -0.97155,-0.8001 -0.0571,0 -0.2286,-0.0762 -0.24765,-0.0762 h -0.1143 c -0.4572,0.17145 -0.8001,0.5334 -0.8763,0.7239 z m 6.2103,6.76275 c 0.74295,0.8001 1.4859,1.84785 2.286,2.53365 l 0.0762,0.0381 c 0.5334,0.28575 0.8001,0.55245 1.3716,0.4191 0.28575,-0.0762 0.66675,-0.20955 0.8382,-0.4572 0.0381,-0.13335 0.17145,-0.36195 0.13335,-0.4953 -0.0571,-0.05715 -0.1905,-0.20955 -0.24765,-0.2286 -0.4191,-0.05715 -0.6096,-0.381 -1.08585,-0.7239 -0.1524,-0.1905 -0.81915,-0.66675 -0.97155,-0.85725 -0.5715,-0.93345 -1.16205,-2.07645 -1.6764,-3.1242 -0.1524,-0.2286 -0.4572,-0.36195 -0.7239,-0.47625 -0.0572,-0.05715 -0.2286,-0.1905 -0.24765,-0.24765 0.1524,-0.36195 -0.381,-0.4572 -0.59055,-0.6096 -0.5715,-0.05715 -1.20015,-0.1524 -1.80975,-0.1524 -0.78105,0 -1.54305,0.13335 -2.1717,0.6477 -1.0668,0.89535 -2.4765,1.9812 -2.53365,3.48615 -0.20955,0.85725 0.24765,1.54305 0.7239,2.286 0.4953,0.59055 1.42875,0.93345 2.2098,0.8382 1.6764,0.01905 3.0099,-1.2573 4.05765,-2.4003 0.0762,-0.13335 0.2286,-0.381 0.36195,-0.47625 z m -5.54355,0.59055 c -0.20955,-0.381 -0.40005,-0.8382 -0.1143,-1.20015 0.6477,-0.9144 1.42875,-2.0193 2.5146,-2.1717 0.762,-0.17145 1.4478,-0.09525 2.19075,-0.2667 0.019,0.24765 -0.1143,0.762 -0.13335,0.9906 -0.0762,0.6477 -0.47625,1.31445 -0.8382,1.80975 -0.5334,0.59055 -0.8382,0.8763 -1.69545,1.20015 -0.28575,0.0762 -0.59055,0.1524 -0.89535,0.1524 -0.40005,0 -0.78105,-0.13335 -1.0287,-0.51435 z"
         id="path505"
         sodipodi:nodetypes="cccssscsccccccssscsccccccccccccccccscccccccccccccsc" />
      <path
         d="m 117.89479,69.807953 c 0,0.01905 0,0.01905 0.019,0.0381 0.0572,0.6096 0.17145,1.2192 0.1905,1.80975 -0.13335,0.93345 0.4953,1.6002 0.8001,2.2479 0.32385,0.4191 0.8001,0.55245 1.2954,0.5715 0.3429,0 0.7239,-0.2286 1.0287,-0.3048 2.1336,-0.70485 2.2479,-1.0287 2.87655,-2.30505 0.2286,-0.3429 0.2286,-0.762 0.28575,-1.16205 -0.13335,-0.28575 -0.17145,-0.9906 -0.74295,-0.89535 -0.47625,-0.01905 -0.62865,0.20955 -0.762,0.5715 -0.0572,0.1143 -0.1905,0.78105 -0.17145,0.9144 -0.6096,1.0287 -0.762,0.97155 -1.61925,1.1811 -0.17145,0.0381 -0.3048,0.05715 -0.43815,0.05715 -0.3048,-0.01905 -0.47625,-0.17145 -0.6858,-0.36195 -0.4191,-1.00965 -0.3429,-3.75285 -0.3429,-4.1529 -0.20955,-0.85725 -0.0762,-1.5621 -0.0762,-2.4003 l 0.0953,-0.13335 c 0.32385,-0.1143 0.74295,-0.2286 1.12395,-0.24765 l 0.0381,-0.01905 c 1.00965,-0.20955 1.9431,-0.47625 2.9337,-0.55245 0.1905,-0.0381 0.32385,-0.1905 0.4953,-0.36195 0.1143,-0.47625 -0.0572,-0.8763 -0.6096,-0.9525 l -0.8763,-0.0381 c -1.1049,-0.13335 -1.69545,0.1524 -2.80035,0.24765 -0.0572,-0.01905 -0.3048,-0.09525 -0.36195,-0.1143 -0.24765,-0.24765 -0.0952,-1.61925 -0.2286,-1.92405 -0.0381,-0.36195 -0.3048,-0.781049 -0.5715,-0.990599 -0.4572,-0.09525 -0.762,-0.01905 -1.08585,0.3429 l -0.0381,2.990849 -0.13335,0.1524 c -1.0287,0.1905 -1.84785,0.36195 -2.95275,0.381 l -0.62865,0.55245 c -0.17145,0.2286 -0.17145,0.78105 -0.0762,1.04775 0.2667,0.2286 0.47625,0.5715 0.78105,0.6858 0.4191,0.05715 0.6477,-0.20955 1.04775,-0.2286 0.6096,-0.3048 1.12395,-0.36195 1.92405,-0.4191 0.13335,0.09525 0.17145,0.36195 0.20955,0.51435 0.0191,0.2286 0.0953,1.4097 0.0953,1.69545 z"
         id="path507"
         sodipodi:nodetypes="ccccccccccccccccccccccccccccccccccccccc" />
      <path
         d="m 127.85795,70.817603 c 0.93345,0.1905 1.12395,-1.4478 1.20015,-1.6383 l 0.0762,-0.8001 c 0.40005,-1.4097 1.0287,-4.4958 1.4097,-5.7912 -0.0191,-0.6858 0.47625,-1.485899 0.43815,-2.133599 -0.13335,-0.28575 -0.28575,-0.7239 -0.6477,-0.6858 -0.5334,-0.09525 -0.6858,0.3048 -0.78105,0.8382 -0.13335,0.28575 -0.4572,1.581149 -0.5334,1.809749 -0.3048,1.61925 -0.7239,1.88595 -0.93345,3.3909 -0.3429,1.1811 -0.59055,2.38125 -0.81915,3.79095 -0.0381,0.24765 0.17145,1.143 0.59055,1.2192 z m -0.2667,1.4478 c -0.80101,0 -1.08585,0.62865 -0.89535,1.3716 0.0381,0.32385 0.20955,0.8763 0.6096,1.00965 0.0952,0.05715 0.1905,0.09525 0.28575,0.09525 0.62865,0 0.78105,-1.5621 0.7239,-1.61925 l 0.0191,-0.05715 c 0.019,-0.1905 -0.095,-0.8001 -0.74295,-0.8001 z"
         id="path509"
         sodipodi:nodetypes="cccccccccccsccsccss" />
    </g>
  </g>
</svg>
